<svg width="13" height="11" viewBox="0 0 13 11" fill="none" xmlns="http://www.w3.org/2000/svg">
<path d="M4.53542 7.90417L6.32917 6.5625L8.10833 7.90417L7.4375 5.71667L9.21667 4.31667H7.04375L6.32917 2.14375L5.61458 4.31667H3.45625L5.19167 5.71667L4.53542 7.90417ZM1.8375 10.325C1.32222 10.325 0.887153 10.1476 0.532292 9.79271C0.177431 9.43785 0 9.00278 0 8.4875V6.43125C0 6.32431 0.0315972 6.23438 0.0947917 6.16146C0.157986 6.08854 0.243056 6.04236 0.35 6.02292C0.573611 5.96458 0.765625 5.86007 0.926042 5.70937C1.08646 5.55868 1.16667 5.37639 1.16667 5.1625C1.16667 4.93889 1.08646 4.75174 0.926042 4.60104C0.765625 4.45035 0.573611 4.35069 0.35 4.30208C0.243056 4.28264 0.157986 4.23646 0.0947917 4.16354C0.0315972 4.09063 0 4.00069 0 3.89375V1.8375C0 1.32222 0.177431 0.887153 0.532292 0.532292C0.887153 0.177431 1.32222 0 1.8375 0H10.8208C11.3361 0 11.7712 0.177431 12.126 0.532292C12.4809 0.887153 12.6583 1.32222 12.6583 1.8375V3.90833C12.6583 4.01528 12.6267 4.10278 12.5635 4.17083C12.5003 4.23889 12.4153 4.28264 12.3083 4.30208C12.0847 4.35069 11.8927 4.45035 11.7323 4.60104C11.5719 4.75174 11.4917 4.93889 11.4917 5.1625C11.4917 5.37639 11.5719 5.55868 11.7323 5.70937C11.8927 5.86007 12.0847 5.96458 12.3083 6.02292C12.4153 6.04236 12.5003 6.08611 12.5635 6.15417C12.6267 6.22222 12.6583 6.30972 12.6583 6.41667V8.4875C12.6583 9.00278 12.4809 9.43785 12.126 9.79271C11.7712 10.1476 11.3361 10.325 10.8208 10.325H1.8375ZM1.8375 8.4875H10.8208V7.24792C10.4708 7.02431 10.1889 6.72778 9.975 6.35833C9.76111 5.98889 9.65417 5.59028 9.65417 5.1625C9.65417 4.725 9.76111 4.32396 9.975 3.95937C10.1889 3.59479 10.4708 3.30069 10.8208 3.07708V1.8375H1.8375V3.07708C2.20694 3.30069 2.49375 3.59479 2.69792 3.95937C2.90208 4.32396 3.00417 4.725 3.00417 5.1625C3.00417 5.59028 2.90208 5.98889 2.69792 6.35833C2.49375 6.72778 2.20694 7.02431 1.8375 7.24792V8.4875Z" fill="#4A2A47"/>
</svg>
